PathFileType	4	(X/Y/Z)	D:\Share\Shared_Data\Ergonomics\Sit To Stand Pertubation\S1\Unperturbed_NoHarness.trc
DataRate	CameraRate	NumFrames	NumMarkers	Units	OrigDataRate	OrigDataStartFrame	OrigNumFrames	
100	100	9	18	m	100	1961	241
Frame#	Time	R_Thigh_Med			R_ASIS			R_Pelvis			V_Sacral			L_Pelvis			L_ASIS			Clavical			R_Acromium			L_Acromium			Sternum			Torso			R_Thigh_Lat			R_Thigh			R_Shank_Med			R_Shank_Lat			R_Shank			R_Heel			R_Toe			
		X1	Y1	Z1	X2	Y2	Z2	X3	Y3	Z3	X4	Y4	Z4	X5	Y5	Z5	X6	Y6	Z6	X7	Y7	Z7	X8	Y8	Z8	X9	Y9	Z9	X10	Y10	Z10	X11	Y11	Z11	X12	Y12	Z12	X13	Y13	Z13	X14	Y14	Z14	X15	Y15	Z15	X16	Y16	Z16	X17	Y17	Z17	X18	Y18	Z18	

1961	19.6	0.35967416	0.40579816	0.01112569	0.13028624	0.60935608	0.088971535	0.051988762	0.65018402	0.11600636	-0.071050697	0.61653979	-0.017456318	0.058815277	0.64992322	-0.14871185	0.15222452	0.61770251	-0.11189099	0.38161859	0.83283472	-0.010694408	0.37801083	0.93858435	0.12734072	0.31620981	0.93677649	-0.19998837	0.36542523	0.85959924	0.086046494	0.37624402	0.84765948	-0.063758114	0.3617522	0.42518314	0.13170264	0.24672983	0.5518382	0.088053947	0.31843362	0.0927976	0.067964882	0.29220322	0.098623688	0.14718213	0.33653015	0.3062673	0.15268199	0.24324542	0.030495665	0.093110229	0.44746274	0.055850403	0.12205553
1962	19.61	0.36170786	0.40526108	0.010656929	0.13345029	0.60951416	0.088915421	0.055193199	0.65123596	0.11623671	-0.067786224	0.61814856	-0.017343302	0.062319279	0.65094556	-0.1485016	0.15552574	0.61843634	-0.11154974	0.38583057	0.8318858	-0.010554997	0.38311133	0.93804517	0.12726479	0.32145261	0.93585431	-0.20012216	0.36989389	0.85897156	0.086066727	0.38076614	0.84669366	-0.063543453	0.36406854	0.42470523	0.13126942	0.24974028	0.55202594	0.088022896	0.31870731	0.092574013	0.067747116	0.29255759	0.0985662	0.14700288	0.33809113	0.30591583	0.15231697	0.24333292	0.030534647	0.093083389	0.44751669	0.055515415	0.12207767
1963	19.62	0.36379099	0.40474115	0.010200391	0.13663747	0.60974591	0.088802071	0.058426571	0.65240759	0.11649653	-0.06449025	0.61986066	-0.017190674	0.065789169	0.65207471	-0.14829988	0.15880934	0.61931439	-0.11119096	0.38961618	0.83140619	-0.0104316	0.38784567	0.93784747	0.12736819	0.32629739	0.93533624	-0.20024496	0.37409604	0.85875793	0.086106895	0.3850213	0.84618207	-0.0633573	0.3664209	0.42422043	0.13085304	0.25282687	0.55226703	0.088005592	0.31898657	0.092364555	0.067530098	0.29291437	0.098518219	0.1468288	0.33969034	0.30557208	0.1519655	0.24341444	0.030575172	0.09305307	0.44758389	0.055176224	0.12210164
1964	19.63	0.3658949	0.40423456	0.0097528639	0.13985072	0.61010626	0.088658012	0.061694683	0.65371826	0.11677763	-0.061166401	0.62170721	-0.016997433	0.069229538	0.65332715	-0.14810562	0.16208435	0.62030786	-0.11081884	0.39307593	0.83140417	-0.010326654	0.39221976	0.93799103	0.12758258	0.33075806	0.93523218	-0.20035442	0.37806512	0.85896027	0.086163544	0.38903534	0.84612952	-0.063207172	0.36879214	0.4237334	0.13045369	0.25597488	0.55256689	0.087986053	0.31926489	0.092170151	0.067315735	0.2932677	0.098479355	0.14666254	0.34131033	0.30523511	0.15162764	0.24348901	0.030616928	0.093019035	0.44766013	0.054846634	0.12212591
1965	19.64	0.36799606	0.40373804	0.0093086805	0.14309032	0.61065277	0.088514549	0.065002533	0.6551795	0.11707517	-0.057818077	0.62371448	-0.016761902	0.07264183	0.65471906	-0.14791681	0.16535587	0.62138995	-0.11043911	0.39632028	0.83187878	-0.010240314	0.39625824	0.93848267	0.12787794	0.33485269	0.93554266	-0.20045189	0.38183746	0.85957361	0.086240974	0.39283408	0.846534	-0.06309948	0.37116632	0.42324976	0.13006955	0.25916779	0.55292456	0.087952721	0.31953577	0.091991188	0.067104782	0.29361407	0.098448204	0.14650568	0.34293353	0.30490317	0.15130333	0.24355623	0.030660484	0.092982697	0.44774045	0.054537243	0.12214837
1966	19.65	0.37007712	0.40325079	0.0088610363	0.14635074	0.61144965	0.088407936	0.068353539	0.65680078	0.11739152	-0.054448135	0.6259021	-0.016482038	0.076025757	0.65626581	-0.14772852	0.16862617	0.62254492	-0.11005685	0.39944589	0.83282104	-0.010171949	0.40000165	0.93933435	0.1282625	0.33860297	0.93626208	-0.20054137	0.38544897	0.86058746	0.086349533	0.39644031	0.84738751	-0.063038013	0.37353006	0.42277539	0.12969691	0.26238831	0.55333575	0.087899597	0.31979358	0.091827225	0.066896637	0.29395331	0.098423409	0.14635837	0.3445448	0.30457428	0.15099176	0.24361613	0.030706032	0.092945854	0.44782065	0.054254246	0.12216548
1967	19.66	0.37212537	0.40277502	0.0084042625	0.14962384	0.61254761	0.088366821	0.071748558	0.65859418	0.11773646	-0.051059872	0.62828192	-0.016157463	0.07938015	0.65798206	-0.14753316	0.17189421	0.6237796	-0.10967841	0.40251208	0.8342157	-0.010121163	0.40349023	0.94055579	0.12873935	0.34203384	0.93738177	-0.20062711	0.38892636	0.86198828	0.086492439	0.39987381	0.84867725	-0.063022629	0.37587192	0.42231525	0.1293306	0.26562234	0.55379742	0.087827141	0.32003442	0.091676765	0.066690208	0.29428827	0.098404404	0.14621944	0.34613168	0.30424725	0.15069087	0.24366917	0.030752962	0.092909729	0.44789841	0.053999962	0.12217226
1968	19.67	0.37413126	0.40231512	0.0079370532	0.15290244	0.61396252	0.088401825	0.075184418	0.66057251	0.11812252	-0.047658066	0.63085706	-0.015792106	0.082703865	0.65988086	-0.14732376	0.17515268	0.62513196	-0.10931831	0.40553427	0.83604089	-0.010087662	0.40675189	0.94214911	0.12927249	0.34517377	0.93889166	-0.2007113	0.3922821	0.86376044	0.08665641	0.40315182	0.85038568	-0.063048817	0.37818076	0.42187286	0.12896432	0.26886105	0.55431201	0.08774202	0.32025598	0.09153701	0.066484711	0.29462241	0.098391457	0.14608659	0.34768469	0.3039223	0.15039661	0.24371611	0.030800222	0.092874985	0.44797443	0.053774097	0.12216393
1969	19.68	0.3760864	0.40187701	0.0074646196	0.15618008	0.61568188	0.08850898	0.07865377	0.66274384	0.11856049	-0.044248966	0.63362152	-0.015395105	0.085996704	0.6619718	-0.14709653	0.17838617	0.62667273	-0.10900726	0.4084975	0.83827032	-0.010070687	0.40980798	0.9441084	0.12980818	0.34805478	0.94077985	-0.20079211	0.3955202	0.86588635	0.086820686	0.406289	0.85249127	-0.063108608	0.3804444	0.4214505	0.12859117	0.2720997	0.5548866	0.08765519	0.32045798	0.091404449	0.066280342	0.29495648	0.098384941	0.14595711	0.34919626	0.30360071	0.15010381	0.24375795	0.030846796	0.092841949	0.44805197	0.053574402	0.12213764
